<?xml version="1.0" encoding="UTF-8" standalone="no"?>
<!DOCTYPE svg PUBLIC "-//W3C//DTD SVG 1.1//EN" "http://www.w3.org/Graphics/SVG/1.1/DTD/svg11.dtd">
<svg width="100%" height="100%" viewBox="0 0 800 800" version="1.1" xmlns="http://www.w3.org/2000/svg" xmlns:xlink="http://www.w3.org/1999/xlink" xml:space="preserve" xmlns:serif="http://www.serif.com/" style="fill-rule:evenodd;clip-rule:evenodd;stroke-linejoin:round;stroke-miterlimit:2;">
    <path id="touchpad" d="M293.18,180.912C320.86,174.706 375.801,171.645 406.215,171.645C437.964,171.645 480.088,173.493 513.176,180.912C527.251,184.068 534.785,189.306 538.249,196C541.624,202.522 540.644,209.638 539.879,215.037C536.839,236.505 532.587,262.25 527.736,291.614L527.722,291.701C525.188,307.038 518.789,317.727 510.362,324.563C501.966,331.373 491.819,334.145 482.128,334.145L318.156,334.145C305.484,334.145 295.656,330.943 288.539,325.452C281.412,319.953 277.262,312.354 275.616,304.054C272.446,288.064 267.854,262.556 262.698,233.914C261.951,229.762 261.191,225.544 260.423,221.281C257.827,206.876 260.107,197.544 266.831,191.381C270.06,188.423 274.103,186.404 278.529,184.835C282.948,183.269 287.949,182.085 293.18,180.912ZM406.215,177.895C375.899,177.895 321.526,180.962 294.548,187.011C289.298,188.188 284.638,189.301 280.616,190.726C276.601,192.149 273.424,193.818 271.054,195.989C266.584,200.086 264.161,206.786 266.574,220.172C267.342,224.438 268.102,228.656 268.849,232.807C274.008,261.464 278.589,286.907 281.747,302.839C283.139,309.857 286.58,316.046 292.358,320.504C298.146,324.969 306.536,327.895 318.156,327.895L482.128,327.895C490.655,327.895 499.335,325.459 506.425,319.708C513.484,313.983 519.231,304.757 521.556,290.683L521.56,290.655C526.418,261.243 530.661,235.556 533.691,214.161C534.49,208.514 535.028,203.376 532.698,198.872C530.457,194.541 525.063,189.983 511.809,187.011C479.416,179.748 437.853,177.895 406.215,177.895Z"/>
    <path d="M199.925,187.349C227.038,184.276 252.762,183.809 268.217,184.327C269.773,184.379 271.054,185.569 271.219,187.118C271.385,188.667 270.384,190.101 268.874,190.481C265.836,191.245 263.669,194.434 262.516,199.813C261.422,204.918 261.541,210.8 262.012,214.683C264.078,225.091 269.374,253.594 274.264,285.569C279.321,318.638 265.888,342.006 258.078,349.863L258.072,349.87C247.641,360.363 236.823,371.246 221.66,392.603C206.223,414.344 184.153,463.279 164.299,510.999C149.383,546.851 135.837,581.718 127.429,603.357C124.674,610.448 122.471,616.119 120.953,619.939C120.921,620.019 120.886,620.098 120.847,620.175C120.699,620.473 120.541,620.806 120.371,621.164C119.816,622.334 119.126,623.788 118.198,625.256L137.704,627.894C141.094,627.869 143.672,627.213 145.832,626.019C148.054,624.796 150.056,622.886 152.081,620.046C155.584,615.134 158.774,608.048 163.201,598.214C164.053,596.321 164.951,594.327 165.905,592.227C173.454,575.618 181.188,555.741 187.875,538.549L188.456,537.056C191.857,528.314 194.978,520.314 197.634,513.921C200.246,507.631 202.528,502.59 204.256,499.982C208.636,493.372 215.06,483.749 226.084,477C237.171,470.212 252.555,466.526 274.543,470.854L524.978,470.854C542.514,466.514 557.979,468.636 570.736,475.918C583.537,483.227 593.313,495.563 599.761,511.071C607.194,528.947 611.905,542.298 616.314,555.061C616.732,556.271 617.148,557.476 617.562,558.678C621.516,570.149 625.4,581.417 631.025,595.484C631.613,596.945 632.175,598.398 632.737,599.836C635.631,607.27 638.363,614.277 642.563,619.596C644.994,622.674 647.844,625.056 651.394,626.531C654.931,627.994 659.387,628.644 665.169,627.925L681.713,625.119C680.831,623.694 680.169,622.297 679.631,621.164C679.456,620.806 679.3,620.473 679.15,620.175C679.112,620.098 679.081,620.019 679.05,619.939C677.531,616.119 675.325,610.449 672.569,603.359C664.163,581.719 650.619,546.852 635.7,510.999C615.848,463.279 593.777,414.344 578.34,392.603C563.177,371.246 552.359,360.363 541.929,349.87L541.922,349.863C534.112,342.006 520.679,318.638 525.736,285.569C530.626,253.595 535.922,225.091 537.988,214.683C538.459,210.8 538.578,204.918 537.484,199.813C536.331,194.434 534.164,191.245 531.126,190.481C529.616,190.101 528.615,188.667 528.781,187.118C528.946,185.569 530.227,184.379 531.783,184.327C547.238,183.809 572.963,184.276 600.075,187.349C627.125,190.416 655.869,196.11 677.163,206.193C677.775,206.481 678.269,206.958 678.588,207.553C695.056,238.614 731.531,324.598 746.294,421.131C755.513,481.444 754.781,528.819 747.794,563.179C740.844,597.358 727.544,619.376 710.919,627.738C700.144,633.156 692.794,633.713 687.531,630.887C687.338,630.781 687.15,630.675 686.969,630.563L666.15,634.1C666.106,634.106 666.056,634.112 666.012,634.119C659.331,634.956 653.737,634.263 649,632.3C644.269,630.344 640.606,627.2 637.663,623.471C632.819,617.344 629.688,609.277 626.813,601.865C626.281,600.484 625.75,599.125 625.225,597.806C619.538,583.59 615.607,572.187 611.654,560.719C611.239,559.515 610.824,558.311 610.407,557.102C606.014,544.386 601.351,531.174 593.989,513.47C587.938,498.914 578.963,487.813 567.636,481.346C556.356,474.906 542.448,472.891 526.128,477.009C525.878,477.073 525.621,477.104 525.363,477.104L274.236,477.104C274.031,477.104 273.826,477.084 273.624,477.044C252.789,472.883 238.959,476.446 229.347,482.331C219.621,488.285 213.85,496.819 209.466,503.434C208.132,505.448 206.072,509.898 203.406,516.318C200.783,522.634 197.688,530.564 194.281,539.323L193.673,540.886C187.005,558.025 179.218,578.043 171.595,594.813C170.682,596.822 169.811,598.76 168.972,600.625C164.567,610.423 161.064,618.214 157.169,623.674C154.789,627.013 152.134,629.681 148.848,631.494C145.544,633.313 141.822,634.144 137.5,634.144C137.36,634.144 137.22,634.138 137.081,634.119L112.609,630.806C112.562,630.838 112.515,630.863 112.468,630.887C107.207,633.713 99.857,633.156 89.082,627.738C72.457,619.376 59.154,597.358 52.205,563.179C45.219,528.819 44.486,481.444 53.709,421.131C68.472,324.598 104.946,238.614 121.412,207.553C121.728,206.958 122.228,206.481 122.837,206.193C144.134,196.11 172.873,190.416 199.925,187.349ZM110.241,624.929C110.189,624.963 110.137,624.998 110.086,625.038C109.901,625.156 109.708,625.275 109.508,625.381C106.997,626.731 102.098,627.288 91.891,622.154C77.889,615.112 65.161,595.537 58.329,561.934C51.534,528.513 50.736,481.919 59.888,422.076C74.381,327.303 110.021,242.727 126.449,211.402C146.716,202.035 174.191,196.556 200.629,193.559C222.896,191.035 244.217,190.293 259.493,190.406C257.945,192.884 256.989,195.776 256.405,198.503C255.11,204.543 255.284,211.23 255.823,215.564C255.832,215.639 255.844,215.714 255.859,215.788C257.892,226.016 263.193,254.521 268.086,286.513C272.828,317.528 260.128,338.936 253.646,345.457C243.119,356.047 232.023,367.212 216.564,388.984C200.639,411.413 178.303,461.068 158.528,508.599C143.578,544.533 129.972,579.554 121.57,601.181C118.859,608.158 116.69,613.741 115.192,617.511C115.024,617.849 114.861,618.183 114.701,618.511C113.38,621.216 112.257,623.516 110.241,624.929ZM689.656,624.857C689.919,625.05 690.2,625.225 690.494,625.381C693,626.731 697.9,627.288 708.112,622.154C722.112,615.112 734.838,595.537 741.669,561.934C748.469,528.513 749.263,481.919 740.113,422.076C725.619,327.303 689.981,242.727 673.55,211.402C653.281,202.035 625.806,196.556 599.371,193.559C577.104,191.035 555.783,190.293 540.508,190.406C542.055,192.884 543.011,195.776 543.595,198.503C544.89,204.543 544.715,211.23 544.177,215.564C544.173,215.601 544.167,215.637 544.161,215.672C544.155,215.711 544.148,215.75 544.141,215.788C542.108,226.016 536.807,254.521 531.914,286.513C527.172,317.528 539.872,338.936 546.354,345.457C556.881,356.047 567.978,367.212 583.436,388.984C599.361,411.413 621.697,461.068 641.469,508.599C656.419,544.533 670.025,579.554 678.431,601.18C681.144,608.158 683.313,613.741 684.806,617.511C684.975,617.849 685.138,618.183 685.3,618.511C686.55,621.076 687.625,623.277 689.45,624.703C689.525,624.751 689.594,624.803 689.656,624.857Z"/>
    <path d="M598.206,187.314C570.763,184.274 544.725,183.813 529.084,184.325C527.524,184.376 526.241,185.571 526.079,187.124C525.916,188.676 526.925,190.111 528.441,190.483C531.555,191.249 533.734,194.417 534.893,199.702C535.998,204.738 535.877,210.543 535.402,214.378C533.309,224.679 527.949,252.881 522.999,284.516C517.872,317.276 531.49,340.421 539.398,348.196L539.404,348.202C549.964,358.585 560.916,369.353 576.266,390.483C591.89,411.989 614.231,460.402 634.331,507.619C649.431,543.091 663.144,577.588 671.656,598.999C674.444,606.016 676.675,611.628 678.213,615.408C678.244,615.489 678.281,615.569 678.325,615.647C678.475,615.942 678.631,616.271 678.806,616.626C680.169,619.438 682.338,623.901 686.8,626.25C692.088,629.025 699.488,628.494 710.394,623.132C727.206,614.865 740.688,593.076 747.725,559.233C754.8,525.221 755.544,478.332 746.206,418.647C731.256,323.12 694.325,238.034 677.656,207.298C677.331,206.706 676.831,206.234 676.219,205.951C654.669,195.981 625.588,190.349 598.206,187.314ZM672.656,211.194C689.288,242.186 725.363,325.857 740.031,419.613C749.294,478.818 748.487,524.907 741.606,557.96C734.694,591.183 721.825,610.548 707.631,617.523C697.294,622.606 692.294,622.073 689.713,620.716C687.181,619.385 685.938,616.902 684.45,613.922C684.288,613.598 684.125,613.268 683.956,612.933C682.438,609.204 680.244,603.681 677.5,596.779C668.994,575.381 655.219,540.728 640.081,505.171C620.063,458.144 597.448,409.006 581.322,386.809C565.671,365.264 554.436,354.217 543.779,343.739C537.218,337.288 524.378,316.128 529.174,285.482C534.126,253.828 539.492,225.626 541.55,215.508C541.566,215.431 541.578,215.355 541.588,215.278C542.134,210.982 542.311,204.354 540.998,198.363C540.409,195.677 539.45,192.841 537.912,190.406C553.381,190.294 574.971,191.028 597.518,193.526C624.292,196.493 652.125,201.917 672.656,211.194Z"/>
    <path d="M201.794,187.314C229.237,184.274 255.275,183.813 270.916,184.325C272.476,184.376 273.759,185.571 273.921,187.124C274.084,188.676 273.075,190.111 271.559,190.483C268.445,191.249 266.266,194.417 265.107,199.702C264.003,204.738 264.123,210.542 264.598,214.378C266.691,224.679 272.051,252.881 277.001,284.516C282.128,317.276 268.51,340.421 260.602,348.196L260.597,348.201C250.036,358.585 239.084,369.353 223.734,390.483C208.11,411.989 185.769,460.402 165.669,507.619C150.569,543.091 136.856,577.588 128.344,598.999C125.555,606.016 123.324,611.628 121.786,615.408C121.753,615.489 121.717,615.569 121.677,615.647C121.527,615.942 121.368,616.271 121.194,616.626C119.829,619.438 117.661,623.901 113.197,626.25C107.912,629.025 100.513,628.494 89.609,623.132C72.793,614.865 59.313,593.076 52.273,559.233C45.197,525.221 44.456,478.332 53.795,418.647C68.742,323.12 105.673,238.034 122.346,207.298C122.666,206.706 123.169,206.234 123.78,205.951C145.329,195.981 174.412,190.349 201.794,187.314ZM127.345,211.194C110.715,242.186 74.64,325.857 59.97,419.613C50.706,478.818 51.516,524.907 58.392,557.96C65.303,591.183 78.178,610.548 92.366,617.523C102.705,622.606 107.708,622.073 110.289,620.716C112.82,619.385 114.06,616.903 115.549,613.923C115.711,613.598 115.876,613.268 116.046,612.933C117.562,609.204 119.757,603.681 122.501,596.779C131.007,575.381 144.783,540.728 159.918,505.171C179.938,458.144 202.553,409.006 218.678,386.809C234.329,365.264 245.564,354.217 256.221,343.739C262.782,337.288 275.622,316.129 270.826,285.482C265.874,253.828 260.508,225.626 258.45,215.508C258.434,215.431 258.422,215.355 258.412,215.278C257.866,210.982 257.689,204.354 259.002,198.363C259.591,195.677 260.55,192.841 262.088,190.406C246.619,190.294 225.029,191.028 202.482,193.526C175.708,196.493 147.877,201.917 127.345,211.194Z"/>
    <g id="sticks">
        <g id="right">
            <path d="M515.625,359.145C491.462,359.145 471.875,378.733 471.875,402.895C471.875,427.058 491.462,446.645 515.625,446.645C539.788,446.645 559.375,427.058 559.375,402.895C559.375,378.733 539.788,359.145 515.625,359.145ZM465.625,402.895C465.625,375.281 488.011,352.895 515.625,352.895C543.239,352.895 565.625,375.281 565.625,402.895C565.625,430.509 543.239,452.895 515.625,452.895C488.011,452.895 465.625,430.509 465.625,402.895Z"/>
            <path id="stick-right" d="M515.625,371.645C498.366,371.645 484.375,385.636 484.375,402.895C484.375,420.154 498.366,434.145 515.625,434.145C532.884,434.145 546.875,420.154 546.875,402.895C546.875,385.636 532.884,371.645 515.625,371.645ZM478.125,402.895C478.125,382.184 494.914,365.395 515.625,365.395C536.336,365.395 553.125,382.184 553.125,402.895C553.125,423.606 536.336,440.395 515.625,440.395C494.914,440.395 478.125,423.606 478.125,402.895Z"/>
        </g>
        <g id="left">
            <path d="M284.375,359.145C260.212,359.145 240.625,378.733 240.625,402.895C240.625,427.058 260.212,446.645 284.375,446.645C308.538,446.645 328.125,427.058 328.125,402.895C328.125,378.733 308.538,359.145 284.375,359.145ZM234.375,402.895C234.375,375.281 256.761,352.895 284.375,352.895C311.989,352.895 334.375,375.281 334.375,402.895C334.375,430.509 311.989,452.895 284.375,452.895C256.761,452.895 234.375,430.509 234.375,402.895Z"/>
            <path id="stick-left" d="M284.375,371.645C267.116,371.645 253.125,385.636 253.125,402.895C253.125,420.154 267.116,434.145 284.375,434.145C301.634,434.145 315.625,420.154 315.625,402.895C315.625,385.636 301.634,371.645 284.375,371.645ZM246.875,402.895C246.875,382.184 263.664,365.395 284.375,365.395C305.086,365.395 321.875,382.184 321.875,402.895C321.875,423.606 305.086,440.395 284.375,440.395C263.664,440.395 246.875,423.606 246.875,402.895Z"/>
        </g>
    </g>
    <g id="buttons">
        <path id="button-mute" d="M378.125,437.27C378.125,435.544 379.524,434.145 381.25,434.145L418.75,434.145C420.476,434.145 421.875,435.544 421.875,437.27C421.875,438.996 420.476,440.395 418.75,440.395L381.25,440.395C379.524,440.395 378.125,438.996 378.125,437.27Z"/>
        <path id="button-r1" d="M658.925,191.59L658.925,197.056C628.369,187.669 593.606,184.802 576.361,184.488L576.361,174.022C593.277,170.066 610.409,172.024 625.2,176.271C639.744,180.445 651.825,186.776 658.925,191.59ZM626.925,170.263C610.749,165.619 591.517,163.473 572.43,168.563C571.063,168.928 570.111,170.167 570.111,171.582L570.111,187.583C570.111,189.308 571.509,190.708 573.236,190.708C589.381,190.708 628.481,193.504 661.063,204.299C662.019,204.614 663.063,204.454 663.875,203.866C664.694,203.279 665.175,202.336 665.175,201.333L665.175,189.958C665.175,188.949 664.688,188.001 663.863,187.415C656.431,182.107 643.094,174.906 626.925,170.263Z"/>
        <g id="button-l1" transform="matrix(1,0,0,1,0,2)">
            <path d="M138.861,191.59L138.861,197.056C169.418,187.669 204.178,184.802 221.424,184.488L221.424,174.022C204.508,170.066 187.376,172.024 172.583,176.271C158.043,180.445 145.959,186.776 138.861,191.59ZM170.858,170.263C187.035,165.619 206.268,163.473 225.354,168.563C226.722,168.928 227.674,170.167 227.674,171.582L227.674,187.583C227.674,189.308 226.275,190.708 224.549,190.708C208.403,190.708 169.302,193.504 136.719,204.299C135.766,204.614 134.72,204.454 133.906,203.866C133.093,203.279 132.611,202.336 132.611,201.333L132.611,189.958C132.611,188.949 133.099,188.001 133.92,187.415C141.351,182.107 154.689,174.906 170.858,170.263Z"/>
        </g>
        <g id="actions">
            <path id="action-button-4" d="M568.75,284.145C560.121,284.145 553.125,291.141 553.125,299.77C553.125,308.399 560.121,315.395 568.75,315.395C577.379,315.395 584.375,308.399 584.375,299.77C584.375,291.141 577.379,284.145 568.75,284.145ZM546.875,299.77C546.875,287.689 556.669,277.895 568.75,277.895C580.831,277.895 590.625,287.689 590.625,299.77C590.625,311.851 580.831,321.645 568.75,321.645C556.669,321.645 546.875,311.851 546.875,299.77Z"/>
            <path id="action-button-3" d="M618.75,334.145C610.121,334.145 603.125,341.141 603.125,349.77C603.125,358.399 610.121,365.395 618.75,365.395C627.381,365.395 634.375,358.399 634.375,349.77C634.375,341.141 627.381,334.145 618.75,334.145ZM596.875,349.77C596.875,337.689 606.669,327.895 618.75,327.895C630.831,327.895 640.625,337.689 640.625,349.77C640.625,361.851 630.831,371.645 618.75,371.645C606.669,371.645 596.875,361.851 596.875,349.77Z"/>
            <path id="action-button-2" d="M668.75,284.145C660.119,284.145 653.125,291.141 653.125,299.77C653.125,308.399 660.119,315.395 668.75,315.395C677.381,315.395 684.375,308.399 684.375,299.77C684.375,291.141 677.381,284.145 668.75,284.145ZM646.875,299.77C646.875,287.689 656.669,277.895 668.75,277.895C680.831,277.895 690.625,287.689 690.625,299.77C690.625,311.851 680.831,321.645 668.75,321.645C656.669,321.645 646.875,311.851 646.875,299.77Z"/>
            <g id="action-button-1" transform="matrix(1,0,0,1,0,3)">
                <path d="M618.75,234.145C610.121,234.145 603.125,241.141 603.125,249.77C603.125,258.399 610.121,265.395 618.75,265.395C627.381,265.395 634.375,258.399 634.375,249.77C634.375,241.141 627.381,234.145 618.75,234.145ZM596.875,249.77C596.875,237.689 606.669,227.895 618.75,227.895C630.831,227.895 640.625,237.689 640.625,249.77C640.625,261.851 630.831,271.645 618.75,271.645C606.669,271.645 596.875,261.851 596.875,249.77Z"/>
            </g>
        </g>
        <g id="directional">
            <path id="direction-button-down" d="M183.53,325.521C182.295,324.204 180.205,324.204 178.97,325.521L166.47,338.854C165.928,339.434 165.625,340.198 165.625,340.992L165.625,362.27C165.625,363.996 167.024,365.395 168.75,365.395L193.75,365.395C195.476,365.395 196.875,363.996 196.875,362.27L196.875,340.992C196.875,340.198 196.573,339.434 196.03,338.854L183.53,325.521ZM174.411,321.246C178.114,317.296 184.386,317.296 188.089,321.246L200.589,334.579C202.218,336.318 203.125,338.61 203.125,340.992L203.125,362.27C203.125,367.448 198.927,371.645 193.75,371.645L168.75,371.645C163.573,371.645 159.375,367.448 159.375,362.27L159.375,340.992C159.375,338.61 160.282,336.318 161.911,334.579L174.411,321.246Z"/>
            <path id="direction-button-up" d="M178.97,286.519C180.205,287.836 182.295,287.836 183.53,286.519L196.03,273.186C196.573,272.606 196.875,271.842 196.875,271.048L196.875,249.77C196.875,248.044 195.476,246.645 193.75,246.645L168.75,246.645C167.024,246.645 165.625,248.044 165.625,249.77L165.625,271.048C165.625,271.842 165.928,272.606 166.47,273.186L178.97,286.519ZM188.089,290.794C184.386,294.744 178.114,294.744 174.411,290.794L161.911,277.46C160.282,275.723 159.375,273.43 159.375,271.048L159.375,249.77C159.375,244.593 163.573,240.395 168.75,240.395L193.75,240.395C198.927,240.395 203.125,244.593 203.125,249.77L203.125,271.048C203.125,273.43 202.218,275.723 200.589,277.46L188.089,290.794Z"/>
            <path id="direction-button-left" d="M161.749,308.3C163.066,307.065 163.066,304.975 161.749,303.74L148.416,291.24C147.836,290.697 147.073,290.395 146.278,290.395L125,290.395C123.274,290.395 121.875,291.794 121.875,293.52L121.875,318.52C121.875,320.246 123.274,321.645 125,321.645L146.278,321.645C147.073,321.645 147.836,321.342 148.416,320.8L161.749,308.3ZM166.024,299.181C169.974,302.884 169.974,309.156 166.024,312.859L152.691,325.359C150.952,326.988 148.66,327.895 146.278,327.895L125,327.895C119.823,327.895 115.625,323.698 115.625,318.52L115.625,293.52C115.625,288.342 119.823,284.145 125,284.145L146.278,284.145C148.66,284.145 150.952,285.051 152.691,286.681L166.024,299.181Z"/>
            <g id="direction-button-right" transform="matrix(1,0,0,1,0,3)">
                <path d="M200.751,303.74C199.434,304.975 199.434,307.065 200.751,308.3L214.084,320.8C214.664,321.342 215.428,321.645 216.222,321.645L237.5,321.645C239.226,321.645 240.625,320.246 240.625,318.52L240.625,293.52C240.625,291.794 239.226,290.395 237.5,290.395L216.222,290.395C215.428,290.395 214.664,290.697 214.084,291.24L200.751,303.74ZM196.476,312.859C192.526,309.156 192.526,302.884 196.476,299.181L209.809,286.681C211.548,285.051 213.84,284.145 216.222,284.145L237.5,284.145C242.678,284.145 246.875,288.342 246.875,293.52L246.875,318.52C246.875,323.698 242.678,327.895 237.5,327.895L216.222,327.895C213.84,327.895 211.548,326.988 209.809,325.359L196.476,312.859Z"/>
            </g>
        </g>
    </g>
    <path d="M570.266,206.207C566.917,205.369 563.524,207.406 562.687,210.754L556.437,235.754C555.599,239.103 557.636,242.496 560.984,243.334C564.333,244.171 567.726,242.134 568.564,238.786L574.814,213.786C575.651,210.438 573.614,207.044 570.266,206.207Z"/>
    <path d="M229.734,206.207C233.083,205.369 236.476,207.406 237.313,210.754L243.563,235.754C244.401,239.103 242.364,242.496 239.016,243.334C235.667,244.171 232.274,242.134 231.436,238.786L225.186,213.786C224.349,210.438 226.386,207.044 229.734,206.207Z"/>
    <g id="speaker" transform="matrix(1,0,0,1,0,1)">
        <path d="M371.875,362.27C371.875,360.544 373.274,359.145 375,359.145L425,359.145C426.726,359.145 428.125,360.544 428.125,362.27C428.125,363.996 426.726,365.395 425,365.395L375,365.395C373.274,365.395 371.875,363.996 371.875,362.27Z"/>
        <path d="M359.375,349.77C359.375,348.044 360.774,346.645 362.5,346.645L437.5,346.645C439.226,346.645 440.625,348.044 440.625,349.77C440.625,351.496 439.226,352.895 437.5,352.895L362.5,352.895C360.774,352.895 359.375,351.496 359.375,349.77Z"/>
    </g>
</svg>
