<!-- Uploaded to: SVG Repo, www.svgrepo.com, Transformed by: SVG Repo Mixer Tools -->
<svg width="800px" height="800px" viewBox="0 0 128 128" fill="none" xmlns="http://www.w3.org/2000/svg">
<path fill-rule="evenodd" clip-rule="evenodd" d="M46.9088 28.9459C51.3376 27.953 60.1282 27.4632 64.9944 27.4632C70.0742 27.4632 76.8141 27.7589 82.1082 28.9459C84.3602 29.4509 85.5656 30.2889 86.1198 31.36C86.6598 32.4035 86.503 33.5421 86.3807 34.4059C85.8943 37.8408 85.2139 41.96 84.4378 46.6582L84.4355 46.6722C84.0301 49.1261 83.0062 50.8363 81.6579 51.93C80.3146 53.0196 78.6911 53.4632 77.1404 53.4632H50.9049C48.8775 53.4632 47.305 52.9509 46.1663 52.0723C45.0259 51.1924 44.3619 49.9767 44.0986 48.6487C43.5914 46.0902 42.8567 42.0089 42.0317 37.4263C41.9121 36.762 41.7906 36.0871 41.6677 35.4049C41.2523 33.1002 41.6171 31.607 42.693 30.6209C43.2096 30.1476 43.8565 29.8246 44.5646 29.5736C45.2717 29.323 46.0719 29.1336 46.9088 28.9459ZM64.9944 28.4632C60.1438 28.4632 51.4442 28.9539 47.1276 29.9217C46.2877 30.11 45.5421 30.2881 44.8986 30.5162C44.2561 30.7439 43.7478 31.0108 43.3687 31.3582C42.6534 32.0137 42.2658 33.0857 42.6518 35.2275C42.7748 35.9101 42.8963 36.585 43.0159 37.2491C43.8413 41.8342 44.5742 45.9051 45.0795 48.4542C45.3022 49.5772 45.8528 50.5674 46.7772 51.2806C47.7033 51.9951 49.0458 52.4632 50.9049 52.4632H77.1404C78.5048 52.4632 79.8936 52.0735 81.028 51.1533C82.1575 50.2372 83.0769 48.7611 83.4489 46.5092L83.4496 46.5048C84.2269 41.7988 84.9058 37.689 85.3905 34.2657C85.5184 33.3623 85.6045 32.5401 85.2317 31.8195C84.8731 31.1265 84.01 30.3972 81.8894 29.9217C76.7065 28.7596 70.0565 28.4632 64.9944 28.4632Z" fill="#000000"/>
<path fill-rule="evenodd" clip-rule="evenodd" d="M31.988 29.9758C36.326 29.4841 40.442 29.4094 42.9147 29.4923C43.1637 29.5007 43.3686 29.6911 43.3951 29.9389C43.4216 30.1867 43.2615 30.4161 43.0199 30.4769C42.5338 30.5992 42.187 31.1095 42.0026 31.97C41.8275 32.7869 41.8465 33.728 41.9219 34.3493C42.2525 36.0145 43.0998 40.5751 43.8822 45.691C44.6913 50.9821 42.5421 54.721 41.2925 55.9781L41.2915 55.9792C39.6225 57.6581 37.8917 59.3994 35.4656 62.8164C32.9957 66.295 29.4644 74.1247 26.2878 81.7599C23.9013 87.4961 21.7339 93.0748 20.3887 96.5371C19.9479 97.6717 19.5954 98.5791 19.3524 99.1902C19.3473 99.203 19.3417 99.2157 19.3355 99.228C19.3118 99.2757 19.2866 99.3289 19.2593 99.3863C19.1705 99.5735 19.0602 99.806 18.9117 100.041L22.0327 100.463C22.575 100.459 22.9875 100.354 23.3331 100.163C23.6886 99.9673 24.0089 99.6617 24.333 99.2073C24.8934 98.4214 25.4038 97.2877 26.1122 95.7142C26.2485 95.4114 26.3921 95.0923 26.5448 94.7563C27.7527 92.0989 28.99 88.9185 30.06 86.1678L30.1529 85.929C30.6971 84.5303 31.1965 83.2503 31.6214 82.2273C32.0394 81.2209 32.4045 80.4144 32.681 79.9971C33.3818 78.9395 34.4096 77.3999 36.1734 76.32C37.9474 75.2339 40.4088 74.6441 43.9269 75.3367H83.9965C86.8022 74.6423 89.2767 74.9817 91.3177 76.1469C93.3659 77.3163 94.93 79.2901 95.9617 81.7713C97.151 84.6315 97.9048 86.7676 98.6103 88.8098C98.6771 89.0034 98.7436 89.1961 98.8099 89.3885C99.4425 91.2239 100.064 93.0267 100.964 95.2775C101.058 95.5112 101.148 95.7437 101.238 95.9737C101.701 97.1632 102.138 98.2843 102.81 99.1353C103.199 99.6278 103.655 100.009 104.223 100.245C104.789 100.479 105.502 100.583 106.427 100.468L109.074 100.019C108.933 99.7911 108.827 99.5675 108.741 99.3863C108.713 99.3289 108.688 99.2757 108.664 99.228C108.658 99.2157 108.653 99.203 108.648 99.1902C108.405 98.5791 108.052 97.6719 107.611 96.5374C106.266 93.0751 104.099 87.4963 101.712 81.7599C98.5356 74.1247 95.0043 66.295 92.5344 62.8164C90.1083 59.3994 88.3775 57.6581 86.7086 55.9792L86.7075 55.9781C85.4579 54.721 83.3087 50.9821 84.1178 45.691C84.9002 40.5752 85.7475 36.0145 86.0781 34.3493C86.1535 33.728 86.1725 32.7869 85.9974 31.97C85.813 31.1095 85.4662 30.5992 84.9801 30.4769C84.7385 30.4161 84.5784 30.1867 84.6049 29.9389C84.6314 29.6911 84.8363 29.5007 85.0853 29.4923C87.558 29.4094 91.674 29.4841 96.012 29.9758C100.34 30.4665 104.939 31.3776 108.346 32.9908C108.444 33.0369 108.523 33.1133 108.574 33.2085C111.209 38.1782 117.045 51.9357 119.407 67.3809C120.882 77.0311 120.765 84.6111 119.647 90.1087C118.535 95.5772 116.407 99.1001 113.747 100.438C112.023 101.305 110.847 101.394 110.005 100.942C109.974 100.925 109.944 100.908 109.915 100.89L106.584 101.456C106.577 101.457 106.569 101.458 106.562 101.459C105.493 101.593 104.598 101.482 103.84 101.168C103.083 100.855 102.497 100.352 102.026 99.7553C101.251 98.775 100.75 97.4844 100.29 96.2984C100.205 96.0774 100.12 95.86 100.036 95.6489C99.126 93.3744 98.4971 91.5499 97.8647 89.715C97.7983 89.5224 97.7318 89.3297 97.6651 89.1363C96.9623 87.1017 96.2161 84.9878 95.0383 82.1552C94.07 79.8263 92.6341 78.05 90.8218 77.0153C89.017 75.9849 86.7916 75.6625 84.1804 76.3215C84.1404 76.3316 84.0993 76.3367 84.058 76.3367H43.8778C43.845 76.3367 43.8122 76.3335 43.7799 76.327C40.4463 75.6613 38.2334 76.2313 36.6955 77.1729C35.1393 78.1256 34.216 79.4911 33.5146 80.5495C33.3011 80.8717 32.9715 81.5836 32.5449 82.6108C32.1252 83.6214 31.6301 84.8902 31.0849 86.2916L30.9876 86.5417C29.9208 89.284 28.6749 92.4868 27.4552 95.1701C27.3091 95.4915 27.1697 95.8016 27.0355 96.1C26.3307 97.6677 25.7702 98.9143 25.1471 99.7879C24.7662 100.322 24.3414 100.749 23.8157 101.039C23.287 101.33 22.6915 101.463 22 101.463C21.9776 101.463 21.9552 101.462 21.933 101.459L18.0174 100.929C18.0099 100.934 18.0024 100.938 17.9949 100.942C17.1532 101.394 15.9771 101.305 14.2531 100.438C11.5931 99.1001 9.4646 95.5772 8.35275 90.1087C7.23499 84.6111 7.11774 77.0311 8.5935 67.3809C10.9555 51.9357 16.7914 38.1782 19.426 33.2085C19.4765 33.1133 19.5564 33.0369 19.6539 32.9908C23.0614 31.3776 27.6597 30.4665 31.988 29.9758ZM17.6386 99.9887C17.6302 99.9941 17.6219 99.9997 17.6138 100.006C17.5841 100.025 17.5533 100.044 17.5212 100.061C17.1196 100.277 16.3357 100.366 14.7025 99.5447C12.4623 98.4179 10.4258 95.2859 9.3327 89.9095C8.24547 84.5621 8.11775 77.107 9.582 67.5321C11.9009 52.3684 17.6033 38.8363 20.2318 33.8244C23.4746 32.3256 27.8706 31.449 32.1007 30.9695C35.6634 30.5656 39.0747 30.4468 41.5188 30.465C41.2712 30.8615 41.1183 31.3242 41.0248 31.7605C40.8176 32.7269 40.8455 33.7968 40.9317 34.4903C40.9332 34.5023 40.9351 34.5142 40.9375 34.5261C41.2628 36.1626 42.1109 40.7233 42.8937 45.8421C43.6525 50.8044 41.6204 54.2298 40.5833 55.2731C38.8991 56.9675 37.1236 58.7539 34.6502 62.2375C32.1022 65.8261 28.5285 73.7709 25.3645 81.3758C22.9725 87.1252 20.7955 92.7287 19.4512 96.1889C19.0174 97.3053 18.6704 98.1986 18.4307 98.8017C18.4039 98.8559 18.3778 98.9092 18.3522 98.9617C18.1408 99.3946 17.9611 99.7626 17.6386 99.9887ZM110.345 99.9771C110.387 100.008 110.432 100.036 110.479 100.061C110.88 100.277 111.664 100.366 113.298 99.5447C115.538 98.4179 117.574 95.2859 118.667 89.9095C119.755 84.5621 119.882 77.107 118.418 67.5321C116.099 52.3684 110.397 38.8363 107.768 33.8244C104.525 32.3256 100.129 31.449 95.8993 30.9695C92.3366 30.5656 88.9253 30.4468 86.4812 30.465C86.7288 30.8615 86.8817 31.3242 86.9752 31.7605C87.1824 32.7269 87.1544 33.7968 87.0683 34.4903C87.0676 34.4961 87.0667 34.5019 87.0658 34.5076C87.0648 34.5138 87.0637 34.52 87.0625 34.5261C86.7372 36.1626 85.8891 40.7233 85.1063 45.8421C84.3475 50.8044 86.3796 54.2298 87.4167 55.2731C89.1009 56.9675 90.8764 58.7539 93.3498 62.2375C95.8978 65.8261 99.4715 73.7709 102.635 81.3758C105.027 87.1252 107.204 92.7286 108.549 96.1888C108.983 97.3053 109.33 98.1986 109.569 98.8018C109.596 98.8559 109.622 98.9093 109.648 98.9617C109.848 99.3722 110.02 99.7243 110.312 99.9524C110.324 99.9602 110.335 99.9684 110.345 99.9771Z" fill="#000000"/>
<path fill-rule="evenodd" clip-rule="evenodd" d="M99 37.4632C97.6193 37.4632 96.5 38.5825 96.5 39.9632C96.5 41.3439 97.6193 42.4632 99 42.4632C100.381 42.4632 101.5 41.3439 101.5 39.9632C101.5 38.5825 100.381 37.4632 99 37.4632ZM95.5 39.9632C95.5 38.0302 97.067 36.4632 99 36.4632C100.933 36.4632 102.5 38.0302 102.5 39.9632C102.5 41.8962 100.933 43.4632 99 43.4632C97.067 43.4632 95.5 41.8962 95.5 39.9632Z" fill="#000000"/>
<path fill-rule="evenodd" clip-rule="evenodd" d="M99 53.4632C97.6193 53.4632 96.5 54.5825 96.5 55.9632C96.5 57.3439 97.6193 58.4632 99 58.4632C100.381 58.4632 101.5 57.3439 101.5 55.9632C101.5 54.5825 100.381 53.4632 99 53.4632ZM95.5 55.9632C95.5 54.0302 97.067 52.4632 99 52.4632C100.933 52.4632 102.5 54.0302 102.5 55.9632C102.5 57.8962 100.933 59.4632 99 59.4632C97.067 59.4632 95.5 57.8962 95.5 55.9632Z" fill="#000000"/>
<path fill-rule="evenodd" clip-rule="evenodd" d="M91 45.4632C89.6193 45.4632 88.5 46.5825 88.5 47.9632C88.5 49.3439 89.6193 50.4632 91 50.4632C92.3807 50.4632 93.5 49.3439 93.5 47.9632C93.5 46.5825 92.3807 45.4632 91 45.4632ZM87.5 47.9632C87.5 46.0302 89.067 44.4632 91 44.4632C92.933 44.4632 94.5 46.0302 94.5 47.9632C94.5 49.8962 92.933 51.4632 91 51.4632C89.067 51.4632 87.5 49.8962 87.5 47.9632Z" fill="#000000"/>
<path fill-rule="evenodd" clip-rule="evenodd" d="M82.5 57.4632C78.634 57.4632 75.5 60.5972 75.5 64.4632C75.5 68.3292 78.634 71.4632 82.5 71.4632C86.366 71.4632 89.5 68.3292 89.5 64.4632C89.5 60.5972 86.366 57.4632 82.5 57.4632ZM74.5 64.4632C74.5 60.0449 78.0817 56.4632 82.5 56.4632C86.9183 56.4632 90.5 60.0449 90.5 64.4632C90.5 68.8815 86.9183 72.4632 82.5 72.4632C78.0817 72.4632 74.5 68.8815 74.5 64.4632Z" fill="#000000"/>
<path fill-rule="evenodd" clip-rule="evenodd" d="M45.5 57.4632C41.634 57.4632 38.5 60.5972 38.5 64.4632C38.5 68.3292 41.634 71.4632 45.5 71.4632C49.366 71.4632 52.5 68.3292 52.5 64.4632C52.5 60.5972 49.366 57.4632 45.5 57.4632ZM37.5 64.4632C37.5 60.0449 41.0817 56.4632 45.5 56.4632C49.9183 56.4632 53.5 60.0449 53.5 64.4632C53.5 68.8815 49.9183 72.4632 45.5 72.4632C41.0817 72.4632 37.5 68.8815 37.5 64.4632Z" fill="#000000"/>
<path fill-rule="evenodd" clip-rule="evenodd" d="M45.5 59.4632C42.7386 59.4632 40.5 61.7018 40.5 64.4632C40.5 67.2247 42.7386 69.4632 45.5 69.4632C48.2614 69.4632 50.5 67.2247 50.5 64.4632C50.5 61.7018 48.2614 59.4632 45.5 59.4632ZM39.5 64.4632C39.5 61.1495 42.1863 58.4632 45.5 58.4632C48.8137 58.4632 51.5 61.1495 51.5 64.4632C51.5 67.7769 48.8137 70.4632 45.5 70.4632C42.1863 70.4632 39.5 67.7769 39.5 64.4632Z" fill="#000000"/>
<path fill-rule="evenodd" clip-rule="evenodd" d="M82.5 59.4632C79.7386 59.4632 77.5 61.7018 77.5 64.4632C77.5 67.2247 79.7386 69.4632 82.5 69.4632C85.2614 69.4632 87.5 67.2247 87.5 64.4632C87.5 61.7018 85.2614 59.4632 82.5 59.4632ZM76.5 64.4632C76.5 61.1495 79.1863 58.4632 82.5 58.4632C85.8137 58.4632 88.5 61.1495 88.5 64.4632C88.5 67.7769 85.8137 70.4632 82.5 70.4632C79.1863 70.4632 76.5 67.7769 76.5 64.4632Z" fill="#000000"/>
<path fill-rule="evenodd" clip-rule="evenodd" d="M105.428 30.6544V31.5289C100.539 30.027 94.977 29.5683 92.2177 29.518V27.8435C94.9243 27.2106 97.6654 27.5238 100.032 28.2033C102.359 28.8712 104.292 29.8842 105.428 30.6544ZM100.308 27.2421C97.7199 26.4991 94.6427 26.1557 91.5888 26.9701C91.37 27.0285 91.2177 27.2267 91.2177 27.4532V30.0132C91.2177 30.2893 91.4415 30.5132 91.7177 30.5132C94.301 30.5132 100.557 30.9607 105.77 32.6878C105.923 32.7383 106.09 32.7126 106.22 32.6186C106.351 32.5246 106.428 32.3738 106.428 32.2132V30.3932C106.428 30.2318 106.35 30.0802 106.218 29.9864C105.029 29.1371 102.895 27.9849 100.308 27.2421Z" fill="#000000"/>
<path fill-rule="evenodd" clip-rule="evenodd" d="M22.2178 30.6544V31.5289C27.1069 30.027 32.6685 29.5683 35.4278 29.518V27.8435C32.7212 27.2106 29.9801 27.5238 27.6133 28.2033C25.2869 28.8712 23.3535 29.8842 22.2178 30.6544ZM27.3373 27.2421C29.9256 26.4991 33.0029 26.1557 36.0567 26.9701C36.2755 27.0285 36.4278 27.2267 36.4278 27.4532V30.0132C36.4278 30.2893 36.204 30.5132 35.9278 30.5132C33.3445 30.5132 27.0883 30.9607 21.875 32.6878C21.7226 32.7383 21.5552 32.7126 21.425 32.6186C21.2949 32.5246 21.2178 32.3738 21.2178 32.2132V30.3932C21.2178 30.2318 21.2958 30.0802 21.4272 29.9864C22.6162 29.1371 24.7502 27.9849 27.3373 27.2421Z" fill="#000000"/>
<path fill-rule="evenodd" clip-rule="evenodd" d="M95.7129 29.9703C91.3221 29.4838 87.156 29.41 84.6535 29.492C84.4038 29.5002 84.1985 29.6913 84.1726 29.9398C84.1466 30.1882 84.308 30.4177 84.5505 30.4773C85.0488 30.5998 85.3975 31.1067 85.5829 31.9523C85.7596 32.758 85.7404 33.6869 85.6643 34.3004C85.3295 35.9487 84.4718 40.461 83.6798 45.5225C82.8596 50.7642 85.0384 54.4674 86.3036 55.7113L86.3046 55.7123C87.9943 57.3736 89.7465 59.0965 92.2025 62.4772C94.7024 65.9183 98.277 73.6643 101.493 81.2191C103.909 86.8946 106.103 92.4141 107.465 95.8399C107.911 96.9626 108.268 97.8605 108.514 98.4653C108.519 98.4783 108.525 98.491 108.532 98.5035C108.556 98.5507 108.581 98.6034 108.609 98.6602C108.827 99.1101 109.174 99.8242 109.888 100.2C110.734 100.644 111.918 100.559 113.663 99.7011C116.353 98.3784 118.51 94.8921 119.636 89.4773C120.768 84.0353 120.887 76.5331 119.393 66.9835C117.001 51.6992 111.092 38.0855 108.425 33.1676C108.373 33.073 108.293 32.9974 108.195 32.9522C104.747 31.3569 100.094 30.4558 95.7129 29.9703ZM107.625 33.791C110.286 38.7497 116.058 52.1371 118.405 67.1381C119.887 76.6108 119.758 83.9851 118.657 89.2736C117.551 94.5893 115.492 97.6877 113.221 98.8037C111.567 99.6169 110.767 99.5316 110.354 99.3145C109.949 99.1016 109.75 98.7043 109.512 98.2275C109.486 98.1757 109.46 98.1228 109.433 98.0692C109.19 97.4726 108.839 96.589 108.4 95.4847C107.039 92.061 104.835 86.5164 102.413 80.8274C99.21 73.303 95.5916 65.4409 93.0115 61.8894C90.5073 58.4423 88.7097 56.6747 87.0047 54.9983C85.9549 53.966 83.9005 50.5805 84.6678 45.6771C85.4602 40.6125 86.3187 36.1001 86.648 34.4812C86.6505 34.469 86.6525 34.4568 86.6541 34.4445C86.7415 33.7571 86.7698 32.6966 86.5597 31.7381C86.4654 31.3083 86.312 30.8546 86.0659 30.465C88.541 30.447 91.9953 30.5645 95.6028 30.9642C99.8867 31.4389 104.34 32.3067 107.625 33.791Z" fill="#000000"/>
<path fill-rule="evenodd" clip-rule="evenodd" d="M32.2871 29.9703C36.6779 29.4838 40.844 29.41 43.3465 29.492C43.5962 29.5002 43.8015 29.6913 43.8274 29.9398C43.8534 30.1882 43.692 30.4177 43.4495 30.4773C42.9512 30.5998 42.6025 31.1067 42.4171 31.9523C42.2405 32.758 42.2596 33.6868 42.3357 34.3004C42.6705 35.9486 43.5282 40.4609 44.3202 45.5225C45.1404 50.7642 42.9616 54.4674 41.6964 55.7113L41.6955 55.7122C40.0058 57.3736 38.2535 59.0964 35.7975 62.4772C33.2976 65.9183 29.723 73.6643 26.507 81.2191C24.091 86.8946 21.8969 92.414 20.5351 95.8398C20.0888 96.9626 19.7318 97.8605 19.4858 98.4653C19.4805 98.4783 19.4747 98.491 19.4683 98.5035C19.4443 98.5507 19.4188 98.6034 19.3911 98.6602C19.1726 99.1101 18.8257 99.8242 18.1115 100.2C17.266 100.644 16.0821 100.559 14.3374 99.7011C11.6468 98.3784 9.49011 94.8921 8.36364 89.4773C7.23153 84.0353 7.113 76.5331 8.60723 66.9835C10.9988 51.6992 16.9077 38.0855 19.5753 33.1676C19.6266 33.073 19.7071 32.9974 19.8048 32.9522C23.2526 31.3569 27.9059 30.4558 32.2871 29.9703ZM20.3752 33.791C17.7144 38.7497 11.9424 52.1371 9.59521 67.1381C8.11301 76.6108 8.24249 83.9851 9.34268 89.2736C10.4485 94.5893 12.5084 97.6877 14.7786 98.8037C16.4328 99.6169 17.2332 99.5316 17.6462 99.3145C18.0512 99.1016 18.2496 98.7044 18.4878 98.2276C18.5138 98.1757 18.5402 98.1228 18.5673 98.0692C18.8099 97.4726 19.1611 96.589 19.6001 95.4847C20.9611 92.061 23.1652 86.5164 25.5869 80.8274C28.79 73.303 32.4084 65.4409 34.9885 61.8894C37.4927 58.4423 39.2903 56.6747 40.9953 54.9983C42.0451 53.966 44.0995 50.5806 43.3322 45.6771C42.5398 40.6125 41.6813 36.1001 41.352 34.4812C41.3495 34.469 41.3475 34.4568 41.3459 34.4445C41.2585 33.7571 41.2302 32.6966 41.4403 31.7381C41.5346 31.3083 41.688 30.8546 41.9341 30.465C39.459 30.447 36.0047 30.5645 32.3972 30.9642C28.1133 31.4389 23.6603 32.3067 20.3752 33.791Z" fill="#000000"/>
<path fill-rule="evenodd" clip-rule="evenodd" d="M107 45.4632C105.619 45.4632 104.5 46.5825 104.5 47.9632C104.5 49.3439 105.619 50.4632 107 50.4632C108.381 50.4632 109.5 49.3439 109.5 47.9632C109.5 46.5825 108.381 45.4632 107 45.4632ZM103.5 47.9632C103.5 46.0302 105.067 44.4632 107 44.4632C108.933 44.4632 110.5 46.0302 110.5 47.9632C110.5 49.8962 108.933 51.4632 107 51.4632C105.067 51.4632 103.5 49.8962 103.5 47.9632Z" fill="#000000"/>
<path fill-rule="evenodd" clip-rule="evenodd" d="M60.5 69.9632C60.5 69.6871 60.7239 69.4632 61 69.4632H67C67.2761 69.4632 67.5 69.6871 67.5 69.9632C67.5 70.2393 67.2761 70.4632 67 70.4632H61C60.7239 70.4632 60.5 70.2393 60.5 69.9632Z" fill="#000000"/>
<path fill-rule="evenodd" clip-rule="evenodd" d="M29.3648 52.0834C29.1672 51.8726 28.8328 51.8726 28.6352 52.0834L26.6352 54.2167C26.5484 54.3094 26.5 54.4316 26.5 54.5587V57.9632C26.5 58.2394 26.7239 58.4632 27 58.4632H31C31.2761 58.4632 31.5 58.2394 31.5 57.9632V54.5587C31.5 54.4316 31.4516 54.3094 31.3648 54.2167L29.3648 52.0834ZM27.9057 51.3994C28.4983 50.7673 29.5017 50.7673 30.0943 51.3994L32.0943 53.5327C32.3549 53.8108 32.5 54.1776 32.5 54.5587V57.9632C32.5 58.7916 31.8284 59.4632 31 59.4632H27C26.1716 59.4632 25.5 58.7916 25.5 57.9632V54.5587C25.5 54.1776 25.6451 53.8108 25.9057 53.5327L27.9057 51.3994Z" fill="#000000"/>
<path fill-rule="evenodd" clip-rule="evenodd" d="M28.6352 45.843C28.8328 46.0537 29.1672 46.0537 29.3648 45.843L31.3648 43.7097C31.4516 43.617 31.5 43.4948 31.5 43.3677L31.5 39.9632C31.5 39.687 31.2761 39.4632 31 39.4632L27 39.4632C26.7239 39.4632 26.5 39.687 26.5 39.9632L26.5 43.3677C26.5 43.4948 26.5484 43.617 26.6352 43.7097L28.6352 45.843ZM30.0943 46.527C29.5017 47.1591 28.4983 47.1591 27.9057 46.527L25.9057 44.3936C25.6451 44.1156 25.5 43.7488 25.5 43.3677L25.5 39.9632C25.5 39.1348 26.1716 38.4632 27 38.4632L31 38.4632C31.8284 38.4632 32.5 39.1348 32.5 39.9632L32.5 43.3677C32.5 43.7488 32.3549 44.1156 32.0943 44.3936L30.0943 46.527Z" fill="#000000"/>
<path fill-rule="evenodd" clip-rule="evenodd" d="M25.8798 49.328C26.0905 49.1304 26.0905 48.796 25.8798 48.5984L23.7465 46.5984C23.6538 46.5115 23.5316 46.4632 23.4045 46.4632L20 46.4632C19.7238 46.4632 19.5 46.6871 19.5 46.9632L19.5 50.9632C19.5 51.2393 19.7238 51.4632 20 51.4632L23.4045 51.4632C23.5316 51.4632 23.6538 51.4148 23.7465 51.328L25.8798 49.328ZM26.5638 47.8689C27.1959 48.4615 27.1959 49.4649 26.5638 50.0575L24.4305 52.0575C24.1524 52.3181 23.7856 52.4632 23.4045 52.4632L20 52.4632C19.1716 52.4632 18.5 51.7916 18.5 50.9632L18.5 46.9632C18.5 46.1348 19.1716 45.4632 20 45.4632L23.4045 45.4632C23.7856 45.4632 24.1524 45.6082 24.4305 45.8689L26.5638 47.8689Z" fill="#000000"/>
<path fill-rule="evenodd" clip-rule="evenodd" d="M32.1202 48.5984C31.9095 48.796 31.9095 49.1304 32.1202 49.328L34.2535 51.328C34.3462 51.4148 34.4684 51.4632 34.5955 51.4632L38 51.4632C38.2762 51.4632 38.5 51.2393 38.5 50.9632L38.5 46.9632C38.5 46.6871 38.2762 46.4632 38 46.4632L34.5955 46.4632C34.4684 46.4632 34.3462 46.5115 34.2535 46.5984L32.1202 48.5984ZM31.4362 50.0575C30.8041 49.4649 30.8041 48.4615 31.4362 47.8689L33.5695 45.8689C33.8476 45.6082 34.2144 45.4632 34.5955 45.4632L38 45.4632C38.8284 45.4632 39.5 46.1348 39.5 46.9632L39.5 50.9632C39.5 51.7916 38.8284 52.4632 38 52.4632L34.5955 52.4632C34.2144 52.4632 33.8476 52.3181 33.5695 52.0575L31.4362 50.0575Z" fill="#000000"/>
<path fill-rule="evenodd" clip-rule="evenodd" d="M91.2425 32.9931C90.7067 32.8591 90.1638 33.1849 90.0299 33.7207L89.0299 37.7207C88.8959 38.2565 89.2217 38.7994 89.7575 38.9334C90.2933 39.0673 90.8362 38.7415 90.9702 38.2058L91.9702 34.2058C92.1041 33.67 91.7783 33.127 91.2425 32.9931Z" fill="#000000"/>
<path fill-rule="evenodd" clip-rule="evenodd" d="M36.7575 32.9931C37.2933 32.8591 37.8362 33.1849 37.9701 33.7207L38.9701 37.7207C39.1041 38.2565 38.7783 38.7994 38.2425 38.9334C37.7067 39.0673 37.1638 38.7415 37.0298 38.2058L36.0298 34.2058C35.8959 33.67 36.2217 33.127 36.7575 32.9931Z" fill="#000000"/>
<path fill-rule="evenodd" clip-rule="evenodd" d="M59.5 57.9632C59.5 57.6871 59.7239 57.4632 60 57.4632H68C68.2761 57.4632 68.5 57.6871 68.5 57.9632C68.5 58.2394 68.2761 58.4632 68 58.4632H60C59.7239 58.4632 59.5 58.2394 59.5 57.9632Z" fill="#000000"/>
<path fill-rule="evenodd" clip-rule="evenodd" d="M57.5 55.9632C57.5 55.6871 57.7239 55.4632 58 55.4632H70C70.2761 55.4632 70.5 55.6871 70.5 55.9632C70.5 56.2394 70.2761 56.4632 70 56.4632H58C57.7239 56.4632 57.5 56.2394 57.5 55.9632Z" fill="#000000"/>
</svg>